<?xml version="1.0" encoding="utf-8"?>
<!-- Generator: Adobe Illustrator 18.1.1, SVG Export Plug-In . SVG Version: 6.00 Build 0)  -->
<svg version="1.1" id="Layer_1" xmlns="http://www.w3.org/2000/svg" xmlns:xlink="http://www.w3.org/1999/xlink" x="0px" y="0px"
	 viewBox="0 0 250 250" enable-background="new 0 0 250 250" xml:space="preserve">
<circle fill="#FFFFFF" stroke="#C6C4C6" stroke-miterlimit="10" cx="125" cy="125" r="119.2"/>
<g>
	<path fill="#3A98BC" d="M51.5,110.2v29.8h-1.8v-29.8h-8v-1.8h17.8v1.8H51.5z"/>
	<path fill="#3A98BC" d="M81.5,140.1h-1.8v-4c-0.3,0.5-0.7,0.9-1.1,1.3c-2.1,2.1-4.7,3.2-7.7,3.2c-3,0-5.5-1.1-7.7-3.2
		c-2.1-2.1-3.2-4.7-3.2-7.7c0-3,1.1-5.6,3.2-7.7c2.1-2.1,4.7-3.2,7.7-3.2c3,0,5.6,1.1,7.7,3.2c0.4,0.4,0.8,0.9,1.1,1.3v-2.8h1.8
		V140.1z M79.7,131.5V128c-0.3-1.7-1.1-3.3-2.5-4.6c-1.8-1.8-3.9-2.6-6.4-2.6c-2.5,0-4.6,0.9-6.3,2.6c-1.8,1.8-2.6,3.9-2.6,6.4
		s0.9,4.6,2.6,6.3c1.8,1.7,3.9,2.6,6.3,2.6c2.5,0,4.6-0.9,6.4-2.6C78.6,134.8,79.4,133.3,79.7,131.5z"/>
	<path fill="#3A98BC" d="M85.7,108.4h1.8v14.9c0.3-0.4,0.7-0.9,1.1-1.3c2.1-2.1,4.7-3.2,7.7-3.2c3,0,5.6,1.1,7.7,3.2
		c2.1,2.1,3.2,4.7,3.2,7.7c0,3-1.1,5.5-3.2,7.7c-2.1,2.1-4.7,3.2-7.7,3.2c-3,0-5.6-1.1-7.7-3.2c-0.4-0.4-0.8-0.9-1.1-1.3v3.9h-1.8
		V108.4z M87.5,127.9v3.7c0.3,1.7,1.1,3.2,2.4,4.5c1.8,1.8,3.9,2.6,6.4,2.6c2.5,0,4.6-0.9,6.3-2.6s2.6-3.9,2.6-6.3s-0.9-4.6-2.6-6.4
		s-3.9-2.6-6.3-2.6c-2.5,0-4.6,0.9-6.4,2.6C88.6,124.7,87.8,126.2,87.5,127.9z"/>
	<path fill="#3A98BC" d="M113,108.4v31.6h-1.8v-31.6H113z"/>
	<path fill="#3A98BC" d="M118.6,128.8c0,0.3-0.1,0.6-0.1,1c0,2.5,0.9,4.6,2.6,6.3c1.8,1.7,3.9,2.6,6.3,2.6s4.6-0.9,6.4-2.6
		c0.3-0.3,0.6-0.6,0.9-0.9l1.9,0.7c-0.2,0.4-0.7,0.9-1.4,1.6c-2.1,2.1-4.7,3.2-7.7,3.2c-3,0-5.5-1.1-7.7-3.2
		c-2.1-2.1-3.2-4.7-3.2-7.7c0-3,1.1-5.6,3.2-7.7c2.1-2.1,4.7-3.2,7.7-3.2c3,0,5.6,1.1,7.7,3.2c1.9,1.9,2.8,4.1,2.8,6.7H118.6z
		 M118.9,127h17c-0.4-1.4-1.1-2.5-2.1-3.5c-1.8-1.8-3.9-2.6-6.4-2.6s-4.6,0.9-6.4,2.6C120.1,124.5,119.4,125.7,118.9,127z"/>
	<path fill="#3A98BC" d="M143.5,120.7v-8.3h1.8v8.3h4v1.8h-4v17.6h-1.8v-17.6h-4v-1.8H143.5z"/>
	<path fill="#3A98BC" d="M162.4,118.9c3,0,5.6,1.1,7.7,3.2c2.1,2.1,3.2,4.7,3.2,7.7c0,3-1.1,5.5-3.2,7.7c-2.1,2.1-4.7,3.2-7.7,3.2
		c-3,0-5.5-1.1-7.7-3.2c-2.1-2.1-3.2-4.7-3.2-7.7c0-3,1.1-5.6,3.2-7.7C156.9,120,159.4,118.9,162.4,118.9z M156,123.4
		c-1.8,1.8-2.6,3.9-2.6,6.4s0.9,4.6,2.6,6.3c1.8,1.7,3.9,2.6,6.3,2.6s4.6-0.9,6.3-2.6c1.8-1.7,2.6-3.9,2.6-6.3s-0.9-4.6-2.6-6.4
		c-1.8-1.8-3.9-2.6-6.3-2.6S157.8,121.7,156,123.4z"/>
	<path fill="#3A98BC" d="M176.9,120.7h1.8v2.7c0.3-0.4,0.7-0.9,1.1-1.3c2.1-2.1,4.7-3.2,7.7-3.2c3,0,5.6,1.1,7.7,3.2
		s3.2,4.7,3.2,7.7c0,3-1.1,5.5-3.2,7.7c-2.1,2.1-4.7,3.2-7.7,3.2c-3,0-5.6-1.1-7.7-3.2c-0.4-0.4-0.8-0.9-1.1-1.3v11.3h-1.8V120.7z
		 M178.7,127.9v3.7c0.3,1.7,1.1,3.2,2.4,4.5c1.8,1.8,3.9,2.6,6.4,2.6c2.5,0,4.6-0.9,6.3-2.6c1.8-1.8,2.6-3.9,2.6-6.3
		s-0.9-4.6-2.6-6.4s-3.9-2.6-6.3-2.6c-2.5,0-4.6,0.9-6.4,2.6C179.8,124.7,179,126.2,178.7,127.9z"/>
	<path fill="#3A98BC" d="M206.9,129.6c-1.5-0.8-2.5-1.5-3.1-2.1c-0.9-0.9-1.4-2-1.4-3.3c0-1.3,0.5-2.4,1.4-3.3s2-1.4,3.3-1.4
		c1.3,0,2.3,0.4,3.2,1.3c0.8,0.8,1.2,1.8,1.2,2.8v0.1l-1.5,0.6c-0.1-1-0.4-1.8-0.9-2.3s-1.1-0.8-1.9-0.8c-0.8,0-1.5,0.3-2,0.9
		c-0.6,0.6-0.8,1.2-0.8,2c0,0.8,0.3,1.5,0.8,2c0.3,0.3,1,0.9,2.1,1.5c1.7,0.9,2.9,1.7,3.6,2.4c1.1,1.1,1.7,2.5,1.7,4
		c0,1.6-0.6,3-1.7,4.1c-1.1,1.1-2.5,1.7-4.1,1.7c-1.6,0-3-0.6-4.1-1.7c-1.1-1.1-1.7-2.4-1.7-3.7l1.8-0.4c0,1.1,0.4,2.1,1.2,2.9
		c0.8,0.8,1.7,1.2,2.8,1.2c1.1,0,2-0.4,2.8-1.2c0.8-0.8,1.2-1.7,1.2-2.9c0-1.1-0.4-2-1.2-2.8C209.1,131.1,208.2,130.5,206.9,129.6z"
		/>
</g>
</svg>
